<svg xmlns="http://www.w3.org/2000/svg" viewBox="0 0 1440 320">
        <path
          fill="#37A53F"
          fill-opacity="1"
          d="M0,64L12.6,58.7C25.3,53,51,43,76,42.7C101.1,43,126,53,152,90.7C176.8,128,202,192,227,224C252.6,256,278,256,303,261.3C328.4,267,354,277,379,261.3C404.2,245,429,203,455,186.7C480,171,505,181,531,154.7C555.8,128,581,64,606,32C631.6,0,657,0,682,10.7C707.4,21,733,43,758,80C783.2,117,808,171,834,165.3C858.9,160,884,96,909,101.3C934.7,107,960,181,985,181.3C1010.5,181,1036,107,1061,112C1086.3,117,1112,203,1137,224C1162.1,245,1187,203,1213,176C1237.9,149,1263,139,1288,160C1313.7,181,1339,235,1364,213.3C1389.5,192,1415,96,1427,48L1440,0L1440,320L1427.4,320C1414.7,320,1389,320,1364,320C1338.9,320,1314,320,1288,320C1263.2,320,1238,320,1213,320C1187.4,320,1162,320,1137,320C1111.6,320,1086,320,1061,320C1035.8,320,1011,320,985,320C960,320,935,320,909,320C884.2,320,859,320,834,320C808.4,320,783,320,758,320C732.6,320,707,320,682,320C656.8,320,632,320,606,320C581.1,320,556,320,531,320C505.3,320,480,320,455,320C429.5,320,404,320,379,320C353.7,320,328,320,303,320C277.9,320,253,320,227,320C202.1,320,177,320,152,320C126.3,320,101,320,76,320C50.5,320,25,320,13,320L0,320Z"
        ></path>
      </svg>