<svg xmlns="http://www.w3.org/2000/svg"
     viewBox="0 0 1440 320">
<path fill="#37A53F"
      fill-opacity="1"
      d="M0,128L15,149.3C30,171,60,213,90,224C120,235,150,213,180,181.3C210,149,240,107,270,101.3C300,96,330,128,360,149.3C390,171,420,181,450,160C480,139,510,85,540,80C570,75,600,117,630,128C660,139,690,117,720,128C750,139,780,181,810,170.7C840,160,870,96,900,85.3C930,75,960,117,990,165.3C1020,213,1050,267,1080,282.7C1110,299,1140,277,1170,250.7C1200,224,1230,192,1260,154.7C1290,117,1320,75,1350,69.3C1380,64,1410,96,1425,112L1440,128L1440,0L1425,0C1410,0,1380,0,1350,0C1320,0,1290,0,1260,0C1230,0,1200,0,1170,0C1140,0,1110,0,1080,0C1050,0,1020,0,990,0C960,0,930,0,900,0C870,0,840,0,810,0C780,0,750,0,720,0C690,0,660,0,630,0C600,0,570,0,540,0C510,0,480,0,450,0C420,0,390,0,360,0C330,0,300,0,270,0C240,0,210,0,180,0C150,0,120,0,90,0C60,0,30,0,15,0L0,0Z" />
</svg>